<?xml version="1.0" encoding="UTF-8" standalone="no"?>
<svg
   xmlns:dc="http://purl.org/dc/elements/1.1/"
   xmlns:cc="http://creativecommons.org/ns#"
   xmlns:rdf="http://www.w3.org/1999/02/22-rdf-syntax-ns#"
   xmlns:svg="http://www.w3.org/2000/svg"
   xmlns="http://www.w3.org/2000/svg"
   id="svg10"
   xml:space="preserve"
   viewBox="0 0 1024 768"
   y="0px"
   x="0px"
   version="1.1"><metadata
     id="metadata16"><rdf:RDF><cc:Work
         rdf:about=""><dc:format>image/svg+xml</dc:format><dc:type
           rdf:resource="http://purl.org/dc/dcmitype/StillImage" /></cc:Work></rdf:RDF></metadata><defs
     id="defs14" /><style
     id="style2">
#bounce{
	animation: bounce 2s ease-in-out infinite;
}

@keyframes bounce {
    0%,
    25%,
    50%,
    75%,
    100% {
        transform: translateY(0);
    }
    40% {
        transform: translateY(-30px);
    }
    60% {
        transform: translateY(-15px);
    }
}
</style><g
     id="bounce"><g
       style="fill:#23bae8"
       id="logo-group"><path
         style="stroke-width:0.75"
         d="m 512.06,159.49569 h -57.2958 v 74.6013 h 0.0817 c 0.0584,0 -1.7981,2.24763 -6.46683,7.82917 -3.60163,4.30595 -6.61279,7.89048 -6.69119,7.96512 l -0.14261,0.13636 v 10.54885 h 141.0294 v -5.2959 c 0,-4.20753 -0.0109,-5.29632 -0.0521,-5.2984 -0.0288,-0.002 -3.04701,-3.57161 -6.70744,-7.93343 -5.76711,-6.87299 -6.64198,-7.93258 -6.55733,-7.94426 l 0.098,-0.0129 v -74.59591 z m 0,7.9647 h 49.3311 v 57.7128 h -98.6622 v -57.7128 z"
         id="icon" /><g
         style="font-variant-ligatures:none"
         aria-label="kh"
         id="title"><path
           transform="matrix(6,0,0,6,-2551.3516,618.56016)"
           style="font-variant-ligatures:none"
           d="m 499.76562,-3.515625 q 0.5625,0 1.40625,-0.421875 0.87891,-0.421875 1.89844,-1.0546875 1.01953,-0.6679687 2.07422,-1.4765625 1.08984,-0.8085937 2.03906,-1.5820313 0.98438,-0.7734375 1.75782,-1.4414062 0.77343,-0.6679685 1.19531,-1.0195315 0.3164,0.316406 0.73828,0.808594 0.45703,0.4921875 0.84375,0.9140625 -0.77344,0.7734375 -1.93359,1.8984375 -1.16016,1.0898438 -2.53125,2.25 -1.33594,1.1601562 -2.8125,2.3203125 -1.44141,1.1601563 -2.84766,2.07421875 -1.37109,0.9140625 -2.56641,1.47656245 -1.19531,0.5625 -2.0039,0.5625 -1.3711,0 -2.4961,-0.5625 -1.08984,-0.5273437 -2.0039,-1.3710937 -0.87891,-0.8789062 -1.65235,-1.96875 -0.77343,-1.125 -1.4414,-2.2851562 -0.59766,0.7734374 -1.23047,1.7226562 -0.59766,0.9140625 -1.125,1.7578125 -0.52735,0.84375 -0.87891,1.4765625 -0.35156,0.6328125 -0.45703,0.7734375 -0.0703,0.28125 -0.21094,0.3867187 -0.14062,0.140625 -0.45703,0.140625 -0.52734,0 -1.26562,-0.421875 -0.70313,-0.3867187 -1.44141,-1.05468745 -0.73828,-0.66796875 -1.44141,-1.44140625 -0.73828,-0.8085937 -1.26562,-1.6171875 -0.28125,-0.3867188 -0.35156,-0.8789063 -0.0703,-0.4921874 -0.0703,-1.1953124 0,-2.3203125 0.5625,-5.2382813 0.5625,-2.917969 1.58204,-6.117187 1.01953,-3.234375 2.42578,-6.644532 1.4414,-3.445312 3.16406,-6.785156 1.72266,-3.375 3.72656,-6.574219 2.00391,-3.199218 4.14844,-5.976562 2.14453,-2.777344 4.39453,-4.992188 2.25,-2.214843 4.53516,-3.621093 0.35156,-0.210938 0.63281,-0.28125 0.31641,-0.07031 0.52734,-0.07031 0.42188,0 1.19532,0.492188 0.77343,0.457031 1.61718,1.125 0.87891,0.667968 1.61719,1.335937 0.77344,0.667969 1.125,1.089844 0.21094,0.316406 0.21094,0.914062 0,2.320313 -1.54688,5.800782 -1.54687,3.445312 -4.35937,7.628906 -2.8125,4.148437 -6.82031,8.824219 -3.97266,4.675781 -8.85938,9.386718 -0.52734,1.792969 -1.01953,3.585938 -0.49219,1.7578122 -0.91406,3.550781 3.30468,-4.746094 5.83593,-7.488281 2.56641,-2.777344 4.39454,-4.183594 1.82812,-1.441406 2.95312,-1.828125 1.16016,-0.421875 1.61719,-0.421875 0.42187,0 0.98437,0.457031 0.59766,0.421875 1.125,1.019532 0.52735,0.5625 0.94922,1.125 0.42188,0.527343 0.5625,0.773437 0.0352,0.351563 -0.73828,1.441406 -0.77344,1.054688 -2.14453,2.460938 -1.37109,1.40625 -3.26953,2.988281 -1.86328,1.546875 -4.07813,2.8828125 1.125,1.6171875 1.9336,2.53125 0.80859,0.9140625 1.37109,1.3710938 0.63281,0.5273437 1.08984,0.6679687 z m -3.76171,-28.371094 q -1.05469,2.109375 -2.17969,4.675782 -1.08985,2.566406 -2.17969,5.449218 3.90234,-4.429687 6.64453,-8.226562 2.77735,-3.796875 4.53516,-6.855469 1.79297,-3.09375 2.60156,-5.449219 0.80859,-2.355468 0.80859,-3.9375 0,-0.105468 -0.0351,-0.210937 0,-0.140625 -0.17578,-0.140625 -0.42188,0 -1.3711,0.984375 -0.94922,0.984375 -2.28515,2.882812 -1.33594,1.898438 -2.98828,4.640625 -1.61719,2.707032 -3.375,6.1875 z"
           id="path151321" /><path
           transform="matrix(6,0,0,6,-2551.3516,618.56016)"
           style="font-variant-ligatures:none"
           d="m 529.50781,-2.953125 q 0.52735,0 1.40625,-0.4570313 0.87891,-0.4570312 1.9336,-1.1601562 1.08984,-0.703125 2.21484,-1.546875 1.125,-0.8789062 2.14453,-1.6875 1.05469,-0.84375 1.86328,-1.5117188 0.8086,-0.7031247 1.23047,-1.0546877 0.31641,0.316406 0.73828,0.808594 0.45703,0.4921875 0.84375,0.9140625 -0.77344,0.7734375 -1.93359,1.8632813 -1.16016,1.0546875 -2.4961,2.1796875 -1.33593,1.1249999 -2.77734,2.2148437 -1.44141,1.0898438 -2.8125,1.96875 -1.37109,0.87890625 -2.56641,1.40625 -1.19531,0.5273437 -2.0039,0.5273437 -0.66797,0 -1.58203,-0.3515625 -0.87891,-0.3164062 -1.72266,-0.84374995 -0.80859,-0.4921875 -1.40625,-1.08984375 -0.5625,-0.6328125 -0.5625,-1.2304688 0.0352,-1.5117187 0.5625,-3.5156249 0.52734,-2.0039063 1.23047,-4.1132813 0.73828,-2.1093755 1.54687,-4.1484375 0.84375,-2.074219 1.54688,-3.691406 -0.28125,0.07031 -1.08984,0.773437 -0.8086,0.703125 -1.96875,1.933594 -1.125,1.195312 -2.4961,2.917969 -1.33594,1.6875 -2.67187,3.7968747 -1.30078,2.1093751 -2.4961,4.5703125 -1.19531,2.4257813 -2.0039,5.1328125 -0.10547,0.3867188 -0.31641,0.5625001 -0.17578,0.1757812 -0.63281,0.1757812 -0.31641,0 -0.98438,-0.3164062 -0.66797,-0.3164063 -1.40625,-0.7734376 -0.73828,-0.42187495 -1.4414,-0.91406245 -0.70313,-0.4921875 -1.125,-0.87890625 -0.21094,-0.24609375 -0.35157,-0.45703125 -0.14062,-0.21093745 -0.14062,-0.63281245 0,-2.3203126 0.77344,-5.6953125 0.77343,-3.3750003 2.14453,-7.3125003 1.33594,-3.972656 3.1289,-8.261718 1.82813,-4.324219 3.86719,-8.472657 2.07422,-4.148437 4.28906,-7.875 2.25,-3.761718 4.39454,-6.609375 2.17968,-2.882812 4.14843,-4.605468 2.00391,-1.757813 3.65625,-1.863282 0.8086,0.246094 1.61719,0.773438 0.84375,0.527344 1.58203,1.160156 0.73828,0.632813 1.30078,1.230469 0.59766,0.597656 0.91407,1.019531 0.21093,0.28125 0.28125,0.667969 0.0703,0.386719 0.0703,0.5625 0,1.265625 -0.70313,3.128906 -0.70312,1.863281 -1.96875,4.183594 -1.26562,2.320312 -3.09375,4.992187 -1.79297,2.636719 -4.00781,5.449219 -2.17969,2.777344 -4.74609,5.625 -2.53125,2.847656 -5.3086,5.519531 -0.70312,1.898438 -1.26562,3.691406 1.89844,-1.968749 3.48047,-3.304687 1.58203,-1.335937 2.8125,-2.109375 1.23047,-0.808594 2.07422,-1.125 0.8789,-0.351562 1.33593,-0.351562 0.31641,0 1.125,0.421875 0.8086,0.386718 1.6875,0.949218 0.87891,0.5625 1.61719,1.160157 0.73828,0.597656 0.91406,0.984375 0.0703,0.175781 0,0.492187 -0.0703,0.28125 -0.14062,0.457031 -0.31641,0.949219 -0.77344,2.214844 -0.42187,1.230469 -0.94922,2.636719 -0.49219,1.371093 -0.98437,2.7773435 -0.49219,1.40625 -0.87891,2.6015625 -0.38672,1.1601563 -0.63281,2.0742188 -0.2461,0.8789062 -0.2461,1.2304687 0,0.2109375 0.21094,0.2109375 z M 526.41406,-33.1875 q -0.84375,1.792969 -1.65234,3.585938 -0.77344,1.757812 -1.51172,3.550781 2.35547,-3.023438 4.57031,-6.117188 2.21485,-3.128906 3.9375,-5.976562 1.75781,-2.882813 2.8125,-5.308594 1.05469,-2.425781 1.05469,-4.078125 0,-0.773437 -0.28125,-0.773437 -0.42188,0 -1.30078,1.160156 -0.84375,1.125 -2.03906,3.128906 -1.19532,2.003906 -2.63672,4.78125 -1.40625,2.777344 -2.95313,6.046875 z"
           id="path151323" /></g></g></g></svg>